<?xml version="1.0" ?><!DOCTYPE svg  PUBLIC '-//W3C//DTD SVG 1.1//EN'  'http://www.w3.org/Graphics/SVG/1.1/DTD/svg11.dtd'><svg id="Layer_1" fill="#FFF" style="enable-background:new 0 0 32 32;" version="1.1" viewBox="0 0 32 32" xml:space="preserve" xmlns="http://www.w3.org/2000/svg" xmlns:xlink="http://www.w3.org/1999/xlink"><g transform="translate(432 192)"><path d="M-422.953-192l-2,22h-6.086v5c0,2.758,2.241,5,5,5h18c2.758,0,5-2.242,4.996-4.924l2.082-27.076H-422.953z M-426.039-162   c-1.656,0-3-1.346-3-3v-3h16v3c0,1.125,0.371,2.164,1,3H-426.039z M-405.039-165c0,1.654-1.35,3-3,3c-1.656,0-3-1.346-3-3v-5   h-11.906l1.819-20h18.004L-405.039-165z M-407.9-180h-10.121l0.187-2h10.09l-0.152,2H-407.9z M-407.594-184h-10.064l0.185-2h10.034   L-407.594-184z M-416.207-176h-2.179l0.183-2h2.146L-416.207-176z M-414.203-178h4.146l-0.15,2h-4.178L-414.203-178z"/></g></svg>